<?xml version="1.0" standalone="no"?>
<!DOCTYPE svg PUBLIC "-//W3C//DTD SVG 20010904//EN"
 "http://www.w3.org/TR/2001/REC-SVG-20010904/DTD/svg10.dtd">
<svg version="1.0" xmlns="http://www.w3.org/2000/svg"
 width="640.000000pt" height="1280.000000pt" viewBox="0 0 640.000000 1280.000000"
 preserveAspectRatio="xMidYMid meet">
<metadata>
Created by potrace 1.15, written by Peter Selinger 2001-2017
</metadata>
<g transform="translate(0.000000,1280.000000) scale(0.100000,-0.100000)"
fill="#000000" stroke="none">
<path d="M3032 11749 c-148 -29 -358 -192 -396 -306 -27 -81 -28 -132 -7 -253
l20 -115 -33 -30 c-52 -47 -53 -65 -6 -142 22 -37 50 -99 61 -138 11 -38 24
-79 29 -90 5 -11 18 -51 30 -90 12 -38 37 -98 56 -133 31 -56 34 -71 34 -142
0 -76 -2 -81 -47 -158 l-48 -80 -88 -6 c-178 -14 -260 -56 -464 -241 l-128
-116 -111 -320 -111 -319 14 -81 14 -80 -49 -47 c-62 -59 -92 -117 -137 -270
-43 -145 -141 -355 -185 -397 -60 -57 -74 -97 -78 -231 l-4 -121 -60 -74
c-105 -130 -166 -287 -153 -391 6 -45 3 -54 -58 -166 -62 -112 -107 -241 -107
-307 0 -64 138 -175 297 -238 l83 -32 -8 -50 c-21 -141 2 -424 49 -609 62
-246 227 -416 419 -432 81 -6 100 3 80 41 -8 14 -55 71 -106 126 -103 113
-143 181 -151 261 -5 47 -2 58 18 82 34 39 53 27 73 -46 23 -81 63 -165 83
-172 21 -9 50 19 64 61 14 43 5 131 -21 217 -11 33 -20 75 -20 92 0 18 -26 85
-61 155 -58 118 -60 126 -54 176 5 45 11 56 35 68 31 16 40 33 40 74 0 17 36
87 94 182 l94 154 73 22 c96 28 109 28 109 1 0 -31 -63 -266 -95 -358 -15 -41
-51 -126 -82 -188 -36 -75 -52 -119 -48 -132 7 -22 58 -64 93 -77 22 -8 22
-10 26 -278 2 -149 9 -380 15 -515 6 -135 16 -553 21 -930 17 -1118 41 -1485
126 -1873 19 -87 34 -160 34 -162 0 -6 137 -35 164 -35 15 0 26 -4 26 -9 0 -5
-37 -36 -83 -69 -73 -53 -129 -106 -194 -184 -28 -34 -118 -83 -271 -149 -146
-62 -192 -98 -192 -153 0 -77 54 -93 260 -77 150 12 207 25 295 67 l60 29 275
1 c298 1 339 6 390 54 19 18 32 44 41 84 11 52 10 76 -14 240 -14 99 -28 196
-30 214 -4 32 -2 33 108 92 l112 60 7 61 c15 152 4 392 -25 521 -9 37 -7 62 5
116 26 115 45 272 56 464 19 334 32 503 40 517 13 24 29 -74 45 -284 41 -539
49 -1074 20 -1460 -9 -126 -17 -252 -18 -280 l-2 -50 167 -110 166 -110 1 -73
c1 -51 -7 -101 -25 -164 -52 -180 -74 -213 -212 -316 -142 -106 -232 -204
-232 -252 0 -26 111 -124 177 -156 51 -26 71 -29 168 -32 79 -2 141 3 220 17
104 19 112 22 142 57 18 20 55 80 82 133 27 53 58 104 68 112 10 9 44 27 77
40 32 13 69 37 83 53 23 28 25 36 21 101 -3 42 -21 117 -44 190 -36 110 -39
128 -36 211 l3 92 57 21 c32 11 100 42 152 69 l95 48 -2 100 c-3 96 -14 250
-33 444 -6 52 -17 165 -25 250 -9 85 -20 196 -25 245 -68 653 -75 724 -110
1228 -20 291 -30 503 -30 665 0 217 -14 513 -40 817 -11 131 -12 179 -3 155
19 -51 84 -81 135 -61 l26 10 -5 -97 c-6 -112 9 -164 52 -184 33 -15 54 -4 76
40 l17 32 22 -97 c28 -126 52 -180 85 -195 22 -10 30 -8 55 10 17 13 31 18 35
12 10 -16 68 -12 94 6 13 9 34 41 47 70 16 37 30 54 42 54 32 0 62 42 62 86 0
46 5 54 44 74 54 28 68 114 41 258 -24 123 -78 275 -135 372 -45 80 -50 93
-45 132 14 102 16 108 33 108 30 0 140 58 155 82 20 30 30 241 28 591 -1 353
-33 763 -72 909 -5 20 -14 74 -20 120 -13 104 -64 290 -170 618 -45 140 -102
318 -126 394 -40 126 -49 146 -100 208 -73 90 -246 254 -358 341 -108 83 -184
123 -332 172 l-112 37 -57 114 c-54 109 -68 125 -90 105 -5 -5 -28 -12 -51
-16 l-42 -7 -15 53 c-23 75 -21 145 4 176 11 14 20 31 20 38 0 29 45 145 76
196 40 66 42 97 12 131 -20 21 -23 37 -26 118 -2 104 -29 219 -72 315 -54 121
-250 269 -389 295 -61 11 -88 11 -149 -1z m1119 -3736 c-27 -344 -6 -450 100
-493 16 -7 29 -14 29 -16 0 -1 -7 -32 -15 -69 -20 -83 -44 -256 -45 -315 -1
-34 -3 -40 -10 -25 -15 35 -90 441 -90 487 0 78 -12 148 -25 148 -26 0 -22 57
16 233 22 99 39 185 39 190 0 6 3 8 6 4 3 -3 1 -68 -5 -144z m-1834 -415 c-3
-8 -6 -5 -6 6 -1 11 2 17 5 13 3 -3 4 -12 1 -19z m-10 -50 c-3 -7 -5 -2 -5 12
0 14 2 19 5 13 2 -7 2 -19 0 -25z m-20 -100 c-3 -8 -6 -5 -6 6 -1 11 2 17 5
13 3 -3 4 -12 1 -19z m-17 -101 c-12 -64 -12 -65 -46 -69 -19 -2 -34 -2 -34 0
0 8 85 141 88 138 2 -2 -2 -33 -8 -69z m2110 -577 c41 -13 78 -25 82 -29 14
-13 -13 -236 -38 -315 -14 -43 -28 -118 -32 -165 -3 -47 -8 -77 -10 -66 -11
59 -113 583 -117 603 -5 22 -4 22 17 8 13 -8 57 -24 98 -36z"/>
</g>
</svg>
